<svg width="41" height="41" viewBox="0 0 41 41" fill="none" xmlns="http://www.w3.org/2000/svg">
<path d="M18.0994 28.5257L11.0681 21.4944C10.5189 20.9452 10.5189 20.0548 11.0681 19.5056L18.0994 12.4744C18.6486 11.9252 19.5389 11.9252 20.0881 12.4744C20.6373 13.0236 20.6373 13.9139 20.0881 14.4631L15.4575 19.0938H28.9375C29.714 19.0938 30.3438 19.7234 30.3438 20.5C30.3438 21.2766 29.714 21.9062 28.9375 21.9062H15.4575L20.0881 26.5368C20.6373 27.086 20.6373 27.9765 20.0881 28.5257C19.5389 29.0747 18.6486 29.0747 18.0994 28.5257ZM0.8125 20.5C0.8125 31.3731 9.6269 40.1875 20.5 40.1875C31.3731 40.1875 40.1875 31.3731 40.1875 20.5C40.1875 9.6269 31.3731 0.8125 20.5 0.8125C9.6269 0.8125 0.8125 9.6269 0.8125 20.5ZM20.5 37.375C11.1802 37.375 3.625 29.8198 3.625 20.5C3.625 11.1802 11.1802 3.625 20.5 3.625C29.8198 3.625 37.375 11.1802 37.375 20.5C37.375 29.8198 29.8198 37.375 20.5 37.375Z" fill="white"/>
</svg>
