<svg width="170" height="30" viewBox="0 0 170 30" fill="none" xmlns="http://www.w3.org/2000/svg">
<path d="M43.7326 14.1378H44.7529C44.9266 14.1378 45.1184 14.124 45.3283 14.0961C45.5382 14.0686 45.7335 14.0097 45.9143 13.9195C46.095 13.8295 46.247 13.7047 46.3703 13.5453C46.4933 13.386 46.5546 13.1746 46.5546 12.9111C46.5546 12.648 46.5038 12.4403 46.4026 12.2874C46.3014 12.135 46.1713 12.0208 46.012 11.9442C45.8525 11.8685 45.6791 11.8196 45.491 11.7988C45.3028 11.7781 45.1294 11.7679 44.9701 11.7679H43.7326V14.1378ZM38.7227 7.92154H45.3953C46.1535 7.92154 46.9082 7.99444 47.6597 8.14004C48.4106 8.28563 49.0816 8.54221 49.6722 8.90919C50.263 9.27655 50.7404 9.76874 51.1052 10.3852C51.4697 11.0022 51.6522 11.775 51.6522 12.7032C51.6522 13.6045 51.4193 14.3977 50.9538 15.0836C50.488 15.7696 49.8193 16.2999 48.9468 16.674L52.8773 22.6406H46.8963L43.9291 17.381H43.7763V22.6406H38.7227V7.92154Z" fill="white"/>
<path d="M57.7606 15.1977C57.7606 15.683 57.8371 16.1265 57.9903 16.5283C58.1433 16.9303 58.3548 17.2767 58.6248 17.5677C58.8946 17.8589 59.2188 18.0841 59.5983 18.2433C59.9772 18.4028 60.3859 18.4824 60.8234 18.4824C61.261 18.4824 61.6656 18.4028 62.0376 18.2433C62.4094 18.0841 62.7337 17.8589 63.011 17.5677C63.288 17.2767 63.5034 16.9303 63.6564 16.5283C63.8094 16.1265 63.8861 15.683 63.8861 15.1977C63.8861 14.7267 63.8094 14.2933 63.6564 13.8985C63.5034 13.5034 63.288 13.1709 63.011 12.9004C62.7337 12.6302 62.4094 12.419 62.0376 12.2665C61.6656 12.1142 61.261 12.0376 60.8234 12.0376C60.3859 12.0376 59.9772 12.1142 59.5983 12.2665C59.2188 12.419 58.8946 12.6302 58.6248 12.9004C58.3548 13.1709 58.1433 13.5034 57.9903 13.8985C57.8371 14.2933 57.7606 14.7267 57.7606 15.1977ZM52.2256 15.1977C52.2256 14.02 52.4444 12.9558 52.882 12.0066C53.3195 11.0573 53.9211 10.2499 54.6867 9.58456C55.4524 8.91927 56.3604 8.4067 57.4106 8.04626C58.4607 7.68582 59.5983 7.5056 60.8234 7.5056C62.0484 7.5056 63.186 7.68582 64.2361 8.04626C65.2861 8.4067 66.1975 8.91927 66.9709 9.58456C67.7436 10.2499 68.349 11.0573 68.7866 12.0066C69.2242 12.9558 69.4428 14.02 69.4428 15.1977C69.4428 16.3759 69.2242 17.4501 68.7866 18.4201C68.349 19.3902 67.7436 20.2182 66.9709 20.9045C66.1975 21.5906 65.2861 22.1204 64.2361 22.4949C63.186 22.869 62.0484 23.0562 60.8234 23.0562C59.5983 23.0562 58.4607 22.869 57.4106 22.4949C56.3604 22.1204 55.4524 21.5906 54.6867 20.9045C53.9211 20.2182 53.3195 19.3902 52.882 18.4201C52.4444 17.4501 52.2256 16.3759 52.2256 15.1977Z" fill="white"/>
<path d="M70.0203 15.2808C70.0203 14.1031 70.2393 13.0355 70.6766 12.0793C71.1142 11.1229 71.7121 10.3052 72.4705 9.6263C73.2287 8.94716 74.1223 8.42381 75.1504 8.05664C76.1788 7.68947 77.2762 7.5056 78.4433 7.5056C79.6388 7.5056 80.7692 7.68947 81.8342 8.05664C82.8984 8.42381 83.7882 8.91927 84.503 9.54302L81.309 13.2018C81.0171 12.8418 80.6526 12.5679 80.215 12.3807C79.7774 12.1936 79.2889 12.1001 78.7493 12.1001C78.3119 12.1001 77.9035 12.1728 77.5242 12.3184C77.1447 12.4638 76.8131 12.6754 76.529 12.9524C76.2444 13.2297 76.0218 13.5657 75.8615 13.9608C75.701 14.3556 75.621 14.7959 75.621 15.2808C75.621 15.766 75.7046 16.1992 75.8724 16.5802C76.04 16.9616 76.2665 17.2907 76.5506 17.5677C76.835 17.845 77.1667 18.0562 77.5462 18.2018C77.9251 18.3474 78.3263 18.4201 78.7493 18.4201C79.3472 18.4201 79.8612 18.3026 80.2915 18.0666C80.7216 17.831 81.0607 17.554 81.309 17.2349L84.503 20.8731C83.8029 21.5384 82.9423 22.0687 81.9217 22.4636C80.9004 22.8586 79.7408 23.0562 78.4433 23.0562C77.2762 23.0562 76.1788 22.869 75.1504 22.4949C74.1223 22.1204 73.2287 21.5906 72.4705 20.9045C71.7121 20.2182 71.1142 19.4006 70.6766 18.4512C70.2393 17.5021 70.0203 16.445 70.0203 15.2808Z" fill="white"/>
<path d="M90.2239 16.778H90.1799V22.6406H85.1265V7.92154H90.1583V13.3475H90.202L94.3366 7.92154H100.462L94.643 14.6575L100.747 22.6406H94.3586L90.2239 16.778Z" fill="white"/>
<path d="M109.79 22.6406H104.54L100.318 7.92154H105.831L107.493 16.1958H107.581L109.375 7.92154H114.822L116.769 16.1958H116.857L118.541 7.92154H123.879L119.57 22.6406H114.319L112.131 14.325H112.044L109.79 22.6406Z" fill="white"/>
<path d="M128.594 15.1977C128.594 15.683 128.67 16.1265 128.823 16.5283C128.976 16.9303 129.188 17.2767 129.458 17.5677C129.727 17.8589 130.052 18.0841 130.431 18.2433C130.81 18.4028 131.219 18.4824 131.656 18.4824C132.094 18.4824 132.499 18.4028 132.871 18.2433C133.242 18.0841 133.567 17.8589 133.844 17.5677C134.121 17.2767 134.336 16.9303 134.489 16.5283C134.642 16.1265 134.719 15.683 134.719 15.1977C134.719 14.7267 134.642 14.2933 134.489 13.8985C134.336 13.5034 134.121 13.1709 133.844 12.9004C133.567 12.6302 133.242 12.419 132.871 12.2665C132.499 12.1142 132.094 12.0376 131.656 12.0376C131.219 12.0376 130.81 12.1142 130.431 12.2665C130.052 12.419 129.727 12.6302 129.458 12.9004C129.188 13.1709 128.976 13.5034 128.823 13.8985C128.67 14.2933 128.594 14.7267 128.594 15.1977ZM123.058 15.1977C123.058 14.02 123.277 12.9558 123.715 12.0066C124.153 11.0573 124.754 10.2499 125.52 9.58456C126.285 8.91927 127.193 8.4067 128.243 8.04626C129.294 7.68582 130.431 7.5056 131.656 7.5056C132.881 7.5056 134.019 7.68582 135.069 8.04626C136.119 8.4067 137.03 8.91927 137.804 9.58456C138.577 10.2499 139.182 11.0573 139.62 12.0066C140.057 12.9558 140.276 14.02 140.276 15.1977C140.276 16.3759 140.057 17.4501 139.62 18.4201C139.182 19.3902 138.577 20.2182 137.804 20.9045C137.03 21.5906 136.119 22.1204 135.069 22.4949C134.019 22.869 132.881 23.0562 131.656 23.0562C130.431 23.0562 129.294 22.869 128.243 22.4949C127.193 22.1204 126.285 21.5906 125.52 20.9045C124.754 20.2182 124.153 19.3902 123.715 18.4201C123.277 17.4501 123.058 16.3759 123.058 15.1977Z" fill="white"/>
<path d="M146.388 15.1977C146.388 15.683 146.464 16.1265 146.618 16.5283C146.771 16.9303 146.982 17.2767 147.252 17.5677C147.522 17.8589 147.846 18.0841 148.226 18.2433C148.605 18.4028 149.013 18.4824 149.451 18.4824C149.888 18.4824 150.293 18.4028 150.665 18.2433C151.037 18.0841 151.361 17.8589 151.638 17.5677C151.915 17.2767 152.131 16.9303 152.284 16.5283C152.437 16.1265 152.514 15.683 152.514 15.1977C152.514 14.7267 152.437 14.2933 152.284 13.8985C152.131 13.5034 151.915 13.1709 151.638 12.9004C151.361 12.6302 151.037 12.419 150.665 12.2665C150.293 12.1142 149.888 12.0376 149.451 12.0376C149.013 12.0376 148.605 12.1142 148.226 12.2665C147.846 12.419 147.522 12.6302 147.252 12.9004C146.982 13.1709 146.771 13.5034 146.618 13.8985C146.464 14.2933 146.388 14.7267 146.388 15.1977ZM140.853 15.1977C140.853 14.02 141.072 12.9558 141.509 12.0066C141.947 11.0573 142.549 10.2499 143.314 9.58456C144.08 8.91927 144.988 8.4067 146.038 8.04626C147.088 7.68582 148.226 7.5056 149.451 7.5056C150.676 7.5056 151.813 7.68582 152.864 8.04626C153.914 8.4067 154.825 8.91927 155.598 9.58456C156.371 10.2499 156.976 11.0573 157.414 12.0066C157.852 12.9558 158.07 14.02 158.07 15.1977C158.07 16.3759 157.852 17.4501 157.414 18.4201C156.976 19.3902 156.371 20.2182 155.598 20.9045C154.825 21.5906 153.914 22.1204 152.864 22.4949C151.813 22.869 150.676 23.0562 149.451 23.0562C148.226 23.0562 147.088 22.869 146.038 22.4949C144.988 22.1204 144.08 21.5906 143.314 20.9045C142.549 20.2182 141.947 19.3902 141.509 18.4201C141.072 17.4501 140.853 16.3759 140.853 15.1977Z" fill="white"/>
<path d="M158.972 7.92154H164.222V18.3788H169.363V22.6406H158.972V7.92154Z" fill="white"/>
<path d="M20.1357 22.6405L16.6506 17.1125V7.92138H18.6007L27.8803 22.6405H20.1357ZM14.3273 17.1127L10.8422 22.6405H3.0978L12.3776 7.92138H14.3273V17.1127ZM0 0.562025V30H30.9782V0.562025H0Z" fill="white"/>
<path d="M167.104 9.55367H167.472C167.545 9.55367 167.617 9.55136 167.686 9.54656C167.756 9.54194 167.818 9.52847 167.873 9.50636C167.928 9.48443 167.971 9.45116 168.002 9.40711C168.034 9.36288 168.049 9.29979 168.049 9.21785C168.049 9.14861 168.035 9.09245 168.007 9.04994C167.979 9.00744 167.942 8.97493 167.895 8.95301C167.849 8.93089 167.796 8.91685 167.738 8.9105C167.68 8.90415 167.623 8.90088 167.567 8.90088H167.104V9.55367ZM166.805 8.64546H167.592C167.85 8.64546 168.041 8.69201 168.164 8.7849C168.287 8.878 168.348 9.02706 168.348 9.23189C168.348 9.415 168.293 9.54886 168.184 9.63407C168.075 9.71927 167.94 9.76986 167.781 9.78544L168.398 10.6842H168.075L167.487 9.80909H167.104V10.6842H166.805V8.64546ZM165.929 9.66253C165.929 9.87372 165.97 10.0701 166.051 10.2515C166.132 10.4328 166.244 10.5904 166.387 10.7244C166.53 10.8585 166.695 10.9641 166.885 11.0414C167.074 11.1187 167.278 11.1572 167.497 11.1572C167.716 11.1572 167.92 11.1187 168.109 11.0414C168.298 10.9641 168.464 10.8577 168.607 10.7221C168.75 10.5865 168.862 10.4265 168.943 10.2418C169.024 10.0574 169.065 9.85814 169.065 9.64349C169.065 9.43231 169.024 9.23516 168.943 9.05225C168.862 8.86934 168.75 8.71086 168.607 8.57699C168.464 8.44293 168.298 8.33811 168.109 8.26233C167.92 8.18655 167.716 8.14866 167.497 8.14866C167.278 8.14866 167.074 8.18732 166.885 8.26464C166.695 8.34196 166.53 8.44755 166.387 8.58161C166.244 8.71566 166.132 8.87492 166.051 9.05937C165.97 9.24382 165.929 9.445 165.929 9.66253ZM165.63 9.66253C165.63 9.41019 165.68 9.17612 165.78 8.95993C165.879 8.74394 166.014 8.55718 166.183 8.39947C166.352 8.24175 166.549 8.11808 166.775 8.02826C167.001 7.93824 167.241 7.89324 167.497 7.89324C167.749 7.89324 167.989 7.93824 168.216 8.02826C168.444 8.11808 168.642 8.24098 168.811 8.39716C168.98 8.55333 169.115 8.73778 169.214 8.9507C169.314 9.16342 169.364 9.39442 169.364 9.64349C169.364 9.89584 169.314 10.1301 169.214 10.3461C169.115 10.5619 168.98 10.7488 168.811 10.9066C168.642 11.0643 168.444 11.1879 168.216 11.2778C167.989 11.3678 167.749 11.4126 167.497 11.4126C167.241 11.4126 167.001 11.3678 166.775 11.2778C166.549 11.1879 166.352 11.065 166.183 10.9089C166.014 10.7529 165.879 10.5682 165.78 10.3553C165.68 10.1426 165.63 9.91161 165.63 9.66253Z" fill="white"/>
</svg>
