<svg width="119" height="22" viewBox="0 0 119 22" fill="none" xmlns="http://www.w3.org/2000/svg">
<path d="M30.424 16V4.672H31.976V9.312C32.232 9.312 32.4773 9.32267 32.712 9.344C32.9573 9.35467 33.1973 9.37067 33.432 9.392L37.528 4.672H39.224L35.016 9.76C36.264 10.1867 37.24 10.912 37.944 11.936C38.648 12.96 39.1387 14.3147 39.416 16H37.704C37.544 15.0613 37.3147 14.2507 37.016 13.568C36.728 12.8853 36.3547 12.3307 35.896 11.904C35.4373 11.4667 34.8827 11.152 34.232 10.96C33.592 10.7573 32.84 10.6667 31.976 10.688V16H30.424ZM49.1962 12.192C49.1962 12.7787 49.0896 13.3173 48.8763 13.808C48.6736 14.2987 48.3856 14.7253 48.0123 15.088C47.6496 15.44 47.2176 15.7173 46.7163 15.92C46.2149 16.112 45.6709 16.208 45.0843 16.208C44.4976 16.208 43.9536 16.112 43.4523 15.92C42.9616 15.7173 42.5296 15.44 42.1562 15.088C41.7936 14.7253 41.5056 14.2987 41.2923 13.808C41.0896 13.3173 40.9883 12.7787 40.9883 12.192C40.9883 11.6053 41.0896 11.0667 41.2923 10.576C41.5056 10.0853 41.7936 9.664 42.1562 9.312C42.5296 8.94933 42.9616 8.672 43.4523 8.48C43.9536 8.27733 44.4976 8.176 45.0843 8.176C45.6709 8.176 46.2149 8.27733 46.7163 8.48C47.2176 8.672 47.6496 8.94933 48.0123 9.312C48.3856 9.664 48.6736 10.0853 48.8763 10.576C49.0896 11.0667 49.1962 11.6053 49.1962 12.192ZM47.6923 12.192C47.6923 11.808 47.6283 11.4507 47.5003 11.12C47.3829 10.7787 47.2123 10.4853 46.9883 10.24C46.7643 9.984 46.4923 9.78667 46.1723 9.648C45.8523 9.49867 45.4896 9.424 45.0843 9.424C44.6789 9.424 44.3163 9.49867 43.9963 9.648C43.6763 9.78667 43.4043 9.984 43.1803 10.24C42.9563 10.4853 42.7856 10.7787 42.6683 11.12C42.5509 11.4507 42.4923 11.808 42.4923 12.192C42.4923 12.5653 42.5509 12.9227 42.6683 13.264C42.7856 13.5947 42.9563 13.888 43.1803 14.144C43.4043 14.3893 43.6763 14.5867 43.9963 14.736C44.3163 14.8853 44.6789 14.96 45.0843 14.96C45.4896 14.96 45.8523 14.8853 46.1723 14.736C46.4923 14.5867 46.7643 14.3893 46.9883 14.144C47.2123 13.888 47.3829 13.5947 47.5003 13.264C47.6283 12.9227 47.6923 12.5653 47.6923 12.192ZM52.7993 16H51.3113V8.384H52.7993V11.392H56.6553V8.384H58.1433V16H56.6553V12.592H52.7993V16ZM66.1739 10.32C66.0032 10.0533 65.7525 9.84 65.4219 9.68C65.1019 9.50933 64.7552 9.424 64.3819 9.424C63.9872 9.424 63.6299 9.49867 63.3099 9.648C62.9899 9.78667 62.7179 9.97867 62.4939 10.224C62.2699 10.4693 62.0939 10.7627 61.9659 11.104C61.8485 11.4453 61.7899 11.808 61.7899 12.192C61.7899 12.576 61.8485 12.9387 61.9659 13.28C62.0939 13.6213 62.2699 13.9147 62.4939 14.16C62.7179 14.4053 62.9899 14.6027 63.3099 14.752C63.6299 14.8907 63.9872 14.96 64.3819 14.96C64.7979 14.96 65.1605 14.88 65.4699 14.72C65.7899 14.56 66.0512 14.3467 66.2539 14.08L67.2459 14.976C66.9152 15.3493 66.5099 15.648 66.0299 15.872C65.5605 16.096 65.0059 16.208 64.3659 16.208C63.7579 16.208 63.1979 16.112 62.6859 15.92C62.1845 15.7173 61.7525 15.44 61.3899 15.088C61.0379 14.7253 60.7605 14.2987 60.5579 13.808C60.3552 13.3173 60.2539 12.7787 60.2539 12.192C60.2539 11.6053 60.3552 11.0667 60.5579 10.576C60.7605 10.0853 61.0379 9.664 61.3899 9.312C61.7525 8.94933 62.1845 8.672 62.6859 8.48C63.1979 8.27733 63.7579 8.176 64.3659 8.176C64.8885 8.176 65.4112 8.28267 65.9339 8.496C66.4565 8.70933 66.8779 9.01867 67.1979 9.424L66.1739 10.32ZM67.6455 8.384H74.3335V9.584H71.6615V16H70.1735V9.584H67.6455V8.384ZM80.5789 11.088C80.5789 10.512 80.4135 10.08 80.0829 9.792C79.7629 9.504 79.3095 9.36 78.7229 9.36C78.2962 9.36 77.8909 9.44 77.5069 9.6C77.1335 9.76 76.8189 9.968 76.5629 10.224L75.7629 9.328C76.1042 8.98667 76.5469 8.70933 77.0909 8.496C77.6349 8.28267 78.2269 8.176 78.8669 8.176C79.3149 8.176 79.7255 8.23467 80.0989 8.352C80.4722 8.46933 80.7922 8.64533 81.0589 8.88C81.3362 9.11467 81.5495 9.41333 81.6989 9.776C81.8589 10.128 81.9442 10.544 81.9549 11.024C81.9655 11.1733 81.9709 11.3173 81.9709 11.456C81.9709 11.5947 81.9709 11.7387 81.9709 11.888V14.336C81.9709 14.624 81.9762 14.9173 81.9869 15.216C82.0082 15.5147 82.0349 15.776 82.0669 16H80.7229C80.7015 15.8187 80.6802 15.632 80.6589 15.44C80.6482 15.248 80.6429 15.0613 80.6429 14.88H80.6109C80.3015 15.3387 79.9335 15.6747 79.5069 15.888C79.0802 16.0907 78.5789 16.192 78.0029 16.192C77.7149 16.192 77.4109 16.1493 77.0909 16.064C76.7815 15.9893 76.4935 15.8613 76.2269 15.68C75.9709 15.488 75.7575 15.248 75.5869 14.96C75.4162 14.6613 75.3309 14.2933 75.3309 13.856C75.3309 13.28 75.4802 12.8267 75.7789 12.496C76.0775 12.1547 76.4722 11.8987 76.9629 11.728C77.4535 11.5467 78.0135 11.4347 78.6429 11.392C79.2722 11.3387 79.9175 11.312 80.5789 11.312V11.088ZM80.2749 12.32C79.8695 12.32 79.4589 12.336 79.0429 12.368C78.6375 12.4 78.2642 12.4693 77.9229 12.576C77.5922 12.6827 77.3202 12.8373 77.1069 13.04C76.8935 13.232 76.7869 13.488 76.7869 13.808C76.7869 14.0427 76.8349 14.24 76.9309 14.4C77.0269 14.56 77.1495 14.6933 77.2989 14.8C77.4482 14.896 77.6189 14.9653 77.8109 15.008C78.0029 15.0507 78.1949 15.072 78.3869 15.072C78.7389 15.072 79.0482 15.0133 79.3149 14.896C79.5922 14.7787 79.8269 14.6187 80.0189 14.416C80.2109 14.2027 80.3549 13.9627 80.4509 13.696C80.5469 13.4187 80.5949 13.1253 80.5949 12.816V12.32H80.2749ZM85.9868 16H84.4988V8.384H85.9868V11.392H89.8428V8.384H91.3308V16H89.8428V12.592H85.9868V16ZM92.8174 8.384H99.5054V9.584H96.8334V16H95.3454V9.584H92.8174V8.384ZM106.823 10.288L102.503 16H100.999V8.384H102.503V13.936L106.823 8.384H108.327V16H106.823V10.288ZM112.377 16H110.889V8.384H112.377V11.392H116.233V8.384H117.721V16H116.233V12.592H112.377V16Z" fill="white"/>
<path d="M13.751 12.9975C14.9931 12.9975 16 14.0044 16 15.2468V15.8223C16 16.7167 15.6804 17.5817 15.0989 18.2612C13.5294 20.095 11.1422 21 7.99667 21C4.85074 21 2.46466 20.0947 0.898305 18.2601C0.318529 17.5811 0 16.7174 0 15.8245V15.2468C0 14.0044 1.00689 12.9975 2.24894 12.9975H13.751ZM13.751 14.4977H2.24894C1.83534 14.4977 1.50004 14.8331 1.50004 15.2468V15.8245C1.50004 16.3603 1.69116 16.8785 2.03903 17.2859C3.29237 18.7538 5.25831 19.4997 7.99667 19.4997C10.735 19.4997 12.7027 18.7538 13.9592 17.2856C14.3082 16.878 14.5 16.3589 14.5 15.8223V15.2468C14.5 14.8331 14.1646 14.4977 13.751 14.4977ZM7.99667 1C10.7581 1 12.9968 3.23898 12.9968 6.0009C12.9968 8.76282 10.7581 11.0018 7.99667 11.0018C5.23519 11.0018 2.99655 8.76282 2.99655 6.0009C2.99655 3.23898 5.23519 1 7.99667 1ZM7.99667 2.50027C6.06361 2.50027 4.49659 4.06756 4.49659 6.0009C4.49659 7.93425 6.06361 9.50154 7.99667 9.50154C9.92972 9.50154 11.4968 7.93425 11.4968 6.0009C11.4968 4.06756 9.92972 2.50027 7.99667 2.50027Z" fill="white"/>
</svg>
