<svg width="41" height="41" viewBox="0 0 41 41" fill="none" xmlns="http://www.w3.org/2000/svg">
<path d="M22.9006 12.4743L29.9319 19.5056C30.4811 20.0548 30.4811 20.9452 29.9319 21.4944L22.9006 28.5256C22.3514 29.0748 21.4611 29.0748 20.9119 28.5256C20.3627 27.9764 20.3627 27.0861 20.9119 26.5369L25.5425 21.9062H12.0625C11.286 21.9062 10.6563 21.2766 10.6563 20.5C10.6563 19.7234 11.286 19.0937 12.0625 19.0937H25.5425L20.9119 14.4632C20.3627 13.914 20.3627 13.0235 20.9119 12.4743C21.4611 11.9253 22.3514 11.9253 22.9006 12.4743ZM40.1875 20.5C40.1875 9.62687 31.3731 0.8125 20.5 0.8125C9.62687 0.8125 0.8125 9.62687 0.8125 20.5C0.8125 31.3731 9.62687 40.1875 20.5 40.1875C31.3731 40.1875 40.1875 31.3731 40.1875 20.5ZM20.5 3.625C29.8198 3.625 37.375 11.1802 37.375 20.5C37.375 29.8198 29.8198 37.375 20.5 37.375C11.1802 37.375 3.625 29.8198 3.625 20.5C3.625 11.1802 11.1802 3.625 20.5 3.625Z" fill="white"/>
</svg>
