<svg width="19" height="20" viewBox="0 0 19 20" fill="none" xmlns="http://www.w3.org/2000/svg">
<path d="M9.1358 0C10.8474 0 12.2461 1.3397 12.3406 3.02773L12.3457 3.20988H17.5309C17.94 3.20988 18.2716 3.54152 18.2716 3.95062C18.2716 4.32563 17.9929 4.63555 17.6314 4.68459L17.5309 4.69136H16.7447L15.4804 17.5498C15.3493 18.8823 14.27 19.9111 12.9507 19.9946L12.7774 20H5.49425C4.1554 20 3.02583 19.0267 2.81366 17.7219L2.79125 17.5498L1.52593 4.69136H0.740741C0.365728 4.69136 0.0558124 4.41269 0.00676544 4.05113L0 3.95062C0 3.5756 0.278667 3.26569 0.640227 3.21664L0.740741 3.20988H5.92593C5.92593 1.43711 7.36306 0 9.1358 0ZM15.2563 4.69136H3.01432L4.26561 17.4048C4.32364 17.9947 4.79045 18.4536 5.36874 18.5122L5.49425 18.5185H12.7774C13.3701 18.5185 13.8725 18.0989 13.9875 17.5291L14.006 17.4048L15.2563 4.69136ZM10.8642 7.40741C11.2392 7.40741 11.5491 7.68607 11.5982 8.04763L11.6049 8.14815V15.0617C11.6049 15.4708 11.2733 15.8025 10.8642 15.8025C10.4892 15.8025 10.1793 15.5238 10.1302 15.1623L10.1235 15.0617V8.14815C10.1235 7.73905 10.4551 7.40741 10.8642 7.40741ZM7.40741 7.40741C7.78242 7.40741 8.09235 7.68607 8.14143 8.04763L8.14815 8.14815V15.0617C8.14815 15.4708 7.81649 15.8025 7.40741 15.8025C7.03239 15.8025 6.72248 15.5238 6.67343 15.1623L6.66667 15.0617V8.14815C6.66667 7.73905 6.99831 7.40741 7.40741 7.40741ZM9.1358 1.48148C8.22894 1.48148 7.48523 2.17986 7.41314 3.06812L7.40741 3.20988H10.8642C10.8642 2.25531 10.0904 1.48148 9.1358 1.48148Z" fill="black" fill-opacity="0.5"/>
</svg>
